<?xml version="1.0" standalone="no"?>
<!DOCTYPE svg PUBLIC "-//W3C//DTD SVG 20010904//EN"
 "http://www.w3.org/TR/2001/REC-SVG-20010904/DTD/svg10.dtd">
<svg version="1.0" xmlns="http://www.w3.org/2000/svg"
 width="1024.000000pt" height="1024.000000pt" viewBox="0 0 1024.000000 1024.000000"
 preserveAspectRatio="xMidYMid meet">
<metadata>
Created by potrace 1.14, written by Peter Selinger 2001-2017
</metadata>
<g transform="translate(0.000000,1024.000000) scale(0.100000,-0.100000)"
fill="#000000" stroke="none">
<path d="M1010 9896 c0 -12 -5 -16 -15 -12 -8 3 -15 1 -15 -4 0 -6 6 -10 13
-10 8 0 7 -4 -3 -10 -8 -5 -10 -10 -5 -10 6 0 10 -11 10 -24 0 -16 -5 -22 -15
-19 -12 4 -13 3 -1 -5 8 -6 10 -15 5 -23 -6 -12 -5 -12 8 -1 14 11 16 9 14
-12 -1 -18 -4 -22 -13 -14 -18 15 -16 2 3 -16 12 -12 12 -16 2 -16 -10 0 -9
-3 2 -10 10 -6 11 -10 3 -10 -7 0 -13 -5 -13 -11 0 -6 8 -8 18 -5 16 6 16 5 0
-8 -18 -13 -26 -32 -10 -22 4 2 8 -6 8 -20 0 -14 -5 -23 -11 -20 -7 2 -12 -2
-12 -10 0 -8 7 -14 16 -15 13 0 13 -2 2 -6 -10 -4 -8 -9 10 -19 13 -7 19 -13
13 -14 -13 0 -12 -59 0 -79 5 -7 1 -18 -10 -26 -18 -14 -18 -14 1 -15 l20 -1
-20 -9 c-19 -8 -19 -9 -1 -9 16 -1 16 -3 5 -17 -10 -12 -10 -17 0 -23 15 -9
14 -20 -2 -40 -9 -11 -9 -13 -1 -8 8 4 11 -2 10 -17 0 -13 -4 -22 -8 -19 -5 2
-8 0 -8 -5 0 -6 7 -13 16 -16 13 -5 14 -9 4 -21 -7 -8 -9 -15 -5 -15 4 0 1 -8
-6 -17 -9 -10 -9 -14 -2 -10 9 6 11 -2 8 -28 -4 -24 -1 -34 6 -30 6 4 5 -2 -2
-13 -7 -12 -17 -18 -23 -15 -5 4 -6 1 -2 -6 5 -7 14 -10 22 -7 10 4 10 -1 -3
-21 -17 -26 -17 -27 1 -20 16 6 17 5 6 -8 -7 -8 -10 -21 -7 -30 4 -8 3 -17 -2
-19 -12 -8 -5 -51 8 -48 7 1 10 -2 6 -8 -3 -6 -11 -8 -16 -5 -5 4 -9 1 -9 -4
0 -6 6 -11 13 -11 8 0 7 -4 -3 -10 -10 -6 -11 -10 -2 -10 6 0 12 -5 12 -11 0
-5 -4 -8 -8 -5 -4 2 -8 -4 -8 -14 0 -10 5 -16 10 -13 5 4 7 0 4 -8 -3 -8 -9
-23 -13 -34 -6 -16 -5 -17 4 -5 9 13 11 13 11 -2 0 -10 -6 -18 -12 -18 -9 0
-10 -3 -2 -8 14 -9 14 -43 0 -61 -8 -11 -8 -13 0 -8 7 4 15 0 18 -9 3 -8 2
-12 -4 -9 -14 9 -12 -8 3 -24 10 -11 9 -13 -6 -8 -14 5 -16 3 -9 -11 5 -9 8
-25 7 -34 -2 -10 2 -21 7 -25 7 -4 8 -1 3 7 -5 8 -4 11 3 6 10 -6 9 -36 -2
-55 -8 -13 4 -42 15 -35 5 3 9 0 9 -5 0 -10 -14 -15 -33 -12 -4 1 0 -10 9 -24
19 -29 29 -34 15 -7 -7 13 -6 19 2 19 18 0 14 -66 -4 -78 -11 -7 -11 -9 4 -9
9 0 17 -5 17 -11 0 -5 -6 -7 -12 -3 -10 6 -10 5 -1 -7 10 -12 10 -18 1 -27 -9
-9 -9 -12 -1 -12 12 0 12 -38 0 -57 -5 -8 0 -11 15 -8 20 3 21 2 7 -7 -15 -11
-15 -14 2 -44 13 -24 15 -35 7 -40 -8 -5 -5 -10 8 -15 17 -7 17 -8 1 -8 -10
-1 -15 -6 -12 -12 4 -5 9 -24 12 -41 3 -23 1 -28 -9 -22 -10 6 -10 4 1 -9 7
-9 11 -17 7 -17 -3 0 -1 -11 4 -25 6 -17 6 -25 -1 -25 -6 0 -7 -5 -4 -10 3 -6
8 -38 11 -72 2 -34 10 -68 17 -77 10 -12 9 -13 -3 -6 -12 7 -13 6 -4 -6 11
-14 26 -85 25 -124 0 -10 4 -24 8 -30 5 -5 11 -21 13 -35 1 -14 8 -28 13 -32
6 -5 4 -8 -5 -8 -11 0 -12 -3 -3 -8 12 -8 17 -72 10 -130 -5 -34 6 -51 19 -31
4 7 3 9 -3 6 -5 -3 -10 1 -10 9 0 19 20 1 23 -21 2 -14 -8 -20 -29 -16 -5 1
-6 -3 -2 -8 3 -6 13 -7 22 -4 10 4 14 2 9 -5 -3 -6 -2 -13 4 -17 7 -4 7 -12 0
-26 -6 -10 -8 -19 -4 -19 3 0 1 -6 -5 -14 -9 -11 -9 -16 0 -22 8 -5 10 -3 4 7
-5 8 -4 11 0 6 5 -4 8 -28 8 -53 -1 -35 2 -44 13 -40 7 3 16 0 20 -6 4 -7 3
-8 -4 -4 -8 5 -12 0 -12 -13 0 -12 5 -21 10 -21 6 0 10 -4 10 -10 0 -5 -8 -7
-17 -4 -16 5 -16 4 0 -6 15 -10 16 -14 5 -28 -10 -12 -10 -14 0 -8 7 4 12 2
12 -8 0 -8 -5 -16 -12 -18 -9 -3 -9 -6 0 -12 7 -4 12 -2 12 3 0 6 4 11 10 11
6 0 6 -9 1 -22 -7 -22 10 -74 21 -63 2 3 5 -2 5 -10 0 -8 -4 -12 -9 -9 -4 3
-8 0 -8 -5 0 -6 5 -11 11 -11 8 0 7 -5 -1 -16 -11 -13 -10 -16 8 -21 18 -4 21
-10 15 -31 -4 -16 -2 -23 5 -18 7 4 9 -5 5 -25 -3 -19 -1 -29 5 -25 12 7 10
-20 -3 -31 -4 -4 -5 -2 0 6 6 10 4 12 -5 6 -10 -6 -10 -10 3 -20 13 -9 14 -14
4 -24 -8 -8 -9 -14 -1 -19 16 -10 33 -46 33 -70 1 -12 1 -31 2 -42 0 -11 4
-18 10 -15 12 8 12 -8 -1 -23 -7 -9 -7 -9 2 -2 16 14 25 13 31 -4 4 -11 1 -13
-10 -9 -13 5 -13 3 -4 -15 6 -11 16 -23 23 -25 10 -4 10 -6 0 -6 -10 -1 -10
-4 0 -15 7 -8 18 -11 23 -8 6 3 4 -2 -4 -11 -9 -11 -10 -17 -2 -17 6 0 11 -5
11 -11 0 -5 -4 -8 -8 -5 -5 3 -9 -1 -9 -9 0 -8 4 -12 8 -9 4 2 11 0 14 -6 5
-8 12 -7 23 2 15 12 15 11 4 -4 -10 -13 -11 -22 -2 -37 7 -14 7 -21 0 -21 -15
0 -8 -20 19 -59 14 -19 19 -31 13 -27 -7 4 -12 2 -12 -3 0 -6 8 -11 18 -12 15
0 15 -1 -2 -8 -17 -7 -17 -8 -3 -14 11 -4 14 -14 11 -31 -3 -17 2 -29 16 -39
11 -7 17 -17 13 -20 -10 -11 -10 -56 0 -54 5 1 13 -8 17 -20 7 -16 6 -21 -4
-17 -7 3 -13 -2 -13 -10 0 -8 8 -13 19 -11 10 2 16 0 13 -5 -3 -4 1 -11 7 -14
7 -3 3 -3 -9 -1 -12 3 -24 1 -28 -5 -4 -6 -3 -10 2 -9 4 1 14 1 22 0 11 -1 11
-4 0 -18 -12 -14 -12 -16 0 -8 11 6 13 3 9 -13 -4 -12 -2 -24 3 -27 4 -3 6
-12 2 -20 -3 -8 0 -15 7 -15 6 0 8 5 4 13 -5 8 -2 8 9 -2 19 -15 23 -26 5 -15
-8 5 -9 2 -5 -9 3 -9 1 -19 -5 -23 -6 -4 -8 -3 -4 4 3 6 1 14 -6 18 -7 4 -10
3 -5 -1 4 -5 0 -19 -8 -31 -11 -17 -12 -25 -3 -30 8 -5 5 -10 -8 -15 -16 -7
-17 -8 -2 -8 20 -1 20 -22 0 -59 -7 -12 -10 -27 -7 -32 3 -6 2 -10 -4 -10 -5
0 -12 6 -15 13 -3 6 -3 -3 0 -21 3 -24 1 -31 -7 -26 -9 5 -10 2 -6 -10 6 -14
3 -16 -16 -12 -12 3 -16 3 -9 0 6 -3 9 -11 6 -16 -5 -7 -2 -8 5 -3 10 6 10 3
0 -16 -7 -13 -11 -26 -10 -27 2 -2 0 -6 -3 -9 -3 -3 -3 5 -1 17 2 12 1 20 -2
16 -4 -4 -8 -16 -10 -28 -2 -12 -9 -28 -16 -37 -10 -12 -9 -14 7 -8 15 6 17 5
8 -6 -7 -8 -8 -18 -4 -22 4 -5 -2 -5 -12 -1 -16 5 -17 4 -6 -9 7 -8 9 -15 5
-15 -4 0 -2 -7 5 -15 11 -13 10 -14 -2 -10 -8 3 -21 -2 -29 -12 -13 -16 -12
-17 2 -5 14 10 18 10 22 -3 4 -8 3 -14 -1 -14 -28 4 -34 -1 -21 -18 12 -14 12
-16 0 -8 -11 6 -13 4 -8 -8 4 -10 1 -17 -6 -17 -8 0 -8 -3 2 -9 11 -7 11 -9 0
-14 -10 -4 -10 -6 -1 -6 9 -1 10 -5 0 -20 -9 -15 -9 -23 2 -35 11 -14 11 -16
-1 -11 -10 4 -14 -3 -13 -27 0 -18 -4 -39 -9 -45 -6 -9 -5 -13 4 -13 12 0 12
-2 1 -9 -8 -4 -13 -11 -12 -15 1 -3 -2 -25 -6 -49 -4 -23 -7 -45 -6 -49 1 -5
-1 -8 -6 -8 -7 0 -14 -47 -16 -117 -1 -43 -9 -55 -20 -30 -4 8 -5 7 -5 -3 2
-28 -1 -39 -17 -54 -10 -11 -11 -16 -3 -16 7 0 9 -3 6 -7 -4 -3 -1 -13 6 -21
9 -13 9 -14 0 -8 -11 6 -18 -16 -15 -45 1 -4 -9 -5 -21 -2 -18 4 -19 3 -7 -6
13 -9 12 -12 -5 -26 -11 -9 -15 -14 -8 -11 6 4 14 2 18 -4 3 -5 -1 -10 -9 -10
-9 0 -16 -5 -16 -11 0 -5 6 -7 12 -3 10 5 10 3 0 -7 -11 -11 -14 -12 -21 0 -5
8 -7 -4 -5 -28 1 -22 -2 -44 -8 -47 -7 -5 -8 -2 -3 6 5 9 4 11 -4 6 -9 -6 -9
-11 1 -24 8 -10 9 -13 1 -9 -11 7 -26 -20 -27 -49 -1 -16 -33 -44 -41 -36 -5
4 -5 1 0 -6 5 -10 10 -11 18 -3 6 6 14 11 18 11 4 0 -8 -16 -26 -36 -19 -20
-31 -42 -28 -50 3 -8 10 -11 16 -7 6 3 7 1 3 -6 -6 -9 -11 -9 -21 -1 -10 9
-13 7 -11 -6 3 -20 -25 -53 -38 -46 -5 3 -6 -1 -1 -8 6 -10 11 -10 20 3 15 21
22 21 22 2 0 -8 -4 -12 -9 -9 -4 3 -11 -2 -14 -10 -3 -9 -9 -14 -13 -12 -3 2
-12 -2 -18 -10 -8 -8 -9 -15 -3 -19 6 -3 10 -1 10 4 0 6 5 11 12 11 16 0 -8
-25 -25 -25 -7 -1 -11 -7 -9 -14 5 -26 -9 -50 -25 -44 -13 5 -15 2 -10 -11 4
-10 3 -15 -3 -11 -6 3 -10 2 -10 -4 0 -5 5 -13 10 -16 6 -4 7 -12 3 -18 -4 -7
-8 -16 -8 -22 0 -5 -8 -9 -17 -7 -20 3 -33 -14 -17 -24 8 -5 9 -3 4 6 -6 9 -4
11 5 5 10 -6 9 -11 -5 -22 -11 -7 -13 -13 -7 -13 10 0 10 -5 2 -20 -6 -11 -8
-25 -4 -31 3 -6 -1 -9 -11 -7 -10 2 -20 -3 -23 -11 -3 -9 0 -11 8 -6 8 5 7 -1
-3 -16 -9 -13 -17 -30 -17 -39 0 -12 2 -12 9 -1 5 8 11 9 15 3 9 -15 -16 -21
-39 -9 -17 9 -18 8 -7 -5 10 -12 10 -18 2 -23 -7 -4 -10 -18 -7 -32 2 -13 2
-22 0 -19 -8 8 -53 -36 -47 -46 10 -16 -6 -59 -18 -52 -8 5 -9 2 -5 -9 4 -11
1 -17 -9 -17 -9 0 -12 5 -8 13 4 7 3 9 -2 4 -5 -5 -10 -17 -10 -28 -4 -53 -3
-52 -19 -39 -9 7 -18 10 -22 6 -3 -3 -1 -6 5 -6 7 0 12 -5 12 -11 0 -6 -7 -9
-15 -5 -8 3 -14 2 -14 -2 3 -18 -14 -51 -23 -46 -6 4 -8 -3 -3 -17 3 -13 3
-19 -2 -14 -16 20 -34 16 -31 -7 2 -18 -1 -22 -16 -20 -11 2 -15 -1 -11 -7 3
-6 2 -11 -4 -11 -5 0 -8 -8 -6 -19 3 -15 -1 -18 -18 -13 -20 5 -21 4 -8 -11
12 -16 12 -17 -5 -10 -17 6 -17 5 -5 -10 12 -15 12 -17 -3 -11 -11 4 -16 1
-16 -11 0 -9 -5 -13 -10 -10 -6 3 -10 -4 -10 -15 0 -16 -4 -20 -16 -16 -15 6
-15 4 -3 -11 8 -9 9 -14 2 -10 -6 4 -14 3 -18 -3 -4 -6 -11 -7 -17 -4 -7 4 -8
2 -4 -5 4 -6 11 -9 16 -6 4 3 11 -2 14 -11 3 -9 2 -12 -5 -8 -6 3 -19 -3 -29
-14 -14 -15 -16 -22 -7 -25 7 -3 4 -6 -5 -6 -10 -1 -18 -6 -18 -12 0 -5 -5 -7
-10 -4 -6 4 -9 3 -8 -2 1 -4 -3 -19 -10 -33 -12 -23 -12 -24 2 -6 9 11 16 15
16 9 0 -16 -28 -36 -39 -28 -7 3 -8 0 -5 -9 6 -14 -5 -21 -28 -17 -5 0 -8 -3
-8 -9 0 -5 6 -10 13 -10 9 0 8 -3 -2 -9 -7 -5 -11 -13 -8 -18 4 -6 -4 -9 -18
-7 -14 1 -23 -2 -19 -7 3 -5 9 -7 13 -5 4 3 8 -1 8 -9 0 -8 -4 -12 -8 -10 -12
8 -39 -6 -33 -16 3 -5 10 -6 16 -3 7 4 8 2 4 -5 -4 -6 -11 -9 -16 -6 -11 7
-22 -24 -13 -38 4 -7 -1 -6 -10 2 -15 12 -21 9 -18 -11 0 -5 -3 -8 -9 -8 -5 0
-10 -7 -10 -15 0 -8 -4 -15 -10 -15 -5 0 -10 -7 -10 -16 0 -8 -4 -12 -10 -9
-8 5 -12 -7 -9 -31 0 -3 -7 -11 -17 -18 -9 -7 -14 -18 -10 -24 4 -8 2 -10 -7
-6 -12 4 -28 -24 -26 -44 0 -2 -7 -9 -16 -16 -9 -6 -15 -18 -13 -26 2 -8 -3
-14 -10 -12 -8 1 -11 -2 -7 -8 5 -8 11 -8 21 1 7 6 21 9 29 5 8 -3 15 0 15 7
0 8 4 6 10 -3 8 -13 10 -12 10 3 0 15 2 16 14 5 8 -7 12 -16 9 -20 -2 -4 3 -5
12 -2 12 5 13 10 5 20 -9 10 -7 11 13 1 14 -6 23 -15 21 -19 -3 -4 2 -5 10 -2
9 3 14 9 12 13 -2 3 30 7 72 7 47 1 78 6 80 13 3 9 8 9 19 0 11 -10 13 -10 11
1 -2 10 9 13 45 11 26 -1 47 1 47 6 0 5 12 10 28 11 15 1 28 6 30 10 1 4 19 6
38 4 24 -3 39 0 45 9 6 10 9 11 9 2 0 -7 12 -13 26 -13 15 0 33 -8 40 -17 9
-12 13 -14 14 -5 0 10 4 9 17 -3 14 -14 14 -18 2 -26 -8 -5 -20 -9 -27 -9 -22
0 -62 -32 -55 -44 4 -8 3 -8 -6 0 -10 9 -19 6 -38 -12 -14 -13 -32 -24 -39
-24 -8 0 -14 -5 -14 -11 0 -5 -4 -8 -8 -5 -5 3 -18 -3 -30 -14 -11 -11 -32
-22 -46 -26 -14 -3 -23 -10 -20 -15 3 -5 0 -10 -5 -10 -6 -1 -15 -3 -21 -4 -5
-1 -15 -3 -21 -4 -5 0 -7 -6 -4 -11 3 -5 -1 -10 -10 -10 -9 0 -13 -4 -10 -10
3 -5 0 -7 -8 -5 -7 3 -26 -6 -41 -20 -15 -14 -34 -25 -42 -25 -8 0 -17 -7 -20
-15 -4 -8 -15 -15 -26 -15 -10 0 -17 -4 -14 -9 4 -5 -6 -14 -21 -19 -16 -6
-22 -11 -14 -11 7 -1 -9 -18 -37 -38 -28 -21 -48 -41 -46 -45 3 -5 -1 -8 -8
-8 -18 0 -53 -41 -50 -57 2 -8 -3 -10 -13 -7 -8 3 -15 2 -15 -2 0 -5 -20 -31
-45 -58 -24 -27 -41 -54 -38 -59 4 -6 0 -8 -8 -5 -9 4 -15 -1 -15 -12 0 -12 7
-16 23 -14 13 1 23 -2 23 -8 0 -6 -8 -7 -17 -4 -16 5 -15 4 1 -9 10 -8 24 -11
30 -8 6 4 4 -2 -4 -12 -9 -11 -10 -16 -3 -11 8 4 13 2 13 -4 0 -6 5 -8 10 -5
6 3 10 0 10 -7 0 -8 14 -26 31 -41 40 -35 54 -44 44 -28 -6 10 -3 11 16 1 31
-16 39 -25 16 -17 -12 4 -16 3 -11 -4 3 -6 15 -9 25 -6 11 3 17 2 15 -2 -3 -4
4 -12 14 -19 16 -10 18 -9 15 10 -3 11 -1 17 3 14 7 -7 8 -11 11 -38 1 -9 4
-8 11 2 8 12 10 12 11 -5 0 -11 3 -14 6 -7 3 8 11 4 25 -13 16 -21 23 -23 34
-14 12 9 13 9 9 -2 -4 -10 2 -15 15 -16 11 -1 18 2 15 8 -4 5 -1 9 6 9 7 0 9
-8 6 -21 -4 -15 -2 -19 9 -15 8 3 14 0 14 -7 0 -8 4 -6 10 3 8 13 10 12 10 -3
0 -10 4 -16 9 -13 5 3 12 -1 15 -10 4 -9 9 -14 13 -10 3 3 17 -1 31 -10 17
-11 22 -12 17 -3 -6 11 -5 12 6 1 7 -6 21 -12 32 -12 11 0 15 -4 11 -12 -5 -8
-2 -9 9 -5 10 4 17 1 17 -6 0 -8 4 -6 10 3 8 12 10 12 10 1 0 -9 7 -11 21 -8
17 4 19 3 10 -6 -14 -14 -14 -27 0 -27 5 0 7 5 3 11 -4 7 -1 10 7 7 8 -3 13
-14 11 -24 -2 -15 1 -13 13 6 l15 25 -6 -29 c-5 -21 -4 -27 5 -22 6 4 11 2 11
-5 0 -8 4 -8 15 1 12 10 15 9 15 -4 0 -9 8 -20 17 -23 26 -10 75 -60 65 -67
-5 -3 -34 -7 -66 -8 -31 -2 -56 -6 -56 -10 0 -5 -5 -8 -11 -8 -5 0 -7 5 -3 11
5 8 -1 10 -20 7 -18 -4 -30 0 -36 11 -8 14 -9 13 -10 -4 -1 -18 -2 -18 -13 -4
-7 9 -31 20 -55 24 -23 4 -40 11 -36 16 3 5 -3 9 -13 9 -11 0 -25 6 -32 12
-11 11 -12 10 -6 0 5 -9 2 -12 -10 -10 -10 2 -19 -3 -21 -10 -1 -7 0 -8 3 -2
9 19 22 0 18 -28 -2 -15 -2 -21 1 -14 8 19 20 14 21 -8 1 -13 -2 -18 -10 -13
-7 4 -6 0 2 -10 7 -9 17 -14 22 -11 5 3 9 -2 9 -10 0 -9 5 -16 10 -16 6 0 10
-7 10 -16 0 -14 2 -15 17 -3 11 10 14 10 9 2 -4 -8 -1 -13 8 -13 9 0 16 -4 16
-9 0 -13 42 -22 55 -11 7 6 11 2 12 -13 2 -18 0 -19 -8 -7 -9 13 -10 13 -6 0
5 -16 10 -16 39 -5 11 4 18 3 18 -5 0 -6 -4 -9 -9 -5 -5 3 -12 1 -15 -4 -7
-11 13 -9 32 3 9 6 12 3 10 -9 -2 -10 4 -20 12 -22 13 -4 13 -3 0 6 -11 8 -8
9 15 6 17 -2 32 -4 35 -5 3 -2 8 -2 13 -1 4 0 6 -2 6 -6 -1 -5 -1 -17 1 -28
l1 -20 9 20 c7 16 9 17 9 3 1 -11 7 -15 21 -11 12 3 22 -1 26 -11 3 -9 13 -16
21 -16 8 0 12 -4 9 -9 -3 -4 6 -7 20 -5 22 2 23 0 12 -14 -8 -10 -8 -13 -1 -9
6 4 18 0 26 -8 12 -11 17 -12 20 -2 4 9 6 9 6 -1 1 -7 5 -10 11 -7 5 3 10 2
10 -4 0 -10 38 -27 52 -23 5 1 8 -2 8 -8 0 -5 12 -10 26 -10 17 0 23 -4 18
-12 -5 -8 0 -7 11 2 10 8 16 10 12 3 -4 -6 -3 -14 3 -18 5 -3 10 -2 10 4 0 6
13 2 30 -7 16 -9 30 -21 30 -26 0 -5 8 -2 17 5 9 8 14 9 10 3 -8 -14 20 -27
36 -17 7 3 9 3 5 -2 -4 -4 0 -14 10 -21 13 -9 20 -10 31 -1 11 9 13 9 8 1 -4
-7 1 -15 11 -19 27 -12 43 -14 37 -4 -4 5 1 6 9 3 9 -3 13 -11 9 -17 -4 -7 0
-8 11 -4 10 4 24 1 33 -8 9 -10 23 -13 35 -9 14 4 18 2 14 -5 -10 -15 7 -14
23 2 8 7 11 7 8 1 -6 -10 21 -43 30 -36 1 1 4 2 6 1 11 -4 84 -14 130 -18 5
-1 5 -6 1 -13 -4 -6 -3 -8 4 -4 6 3 13 2 17 -4 3 -5 11 -10 17 -10 6 0 5 7 -3
17 -7 10 0 7 15 -7 16 -14 26 -19 22 -12 -4 6 -2 12 3 12 6 0 11 -6 11 -12 0
-10 3 -9 9 1 7 11 9 11 13 0 4 -12 8 -11 23 1 11 9 16 10 11 3 -4 -7 -3 -13 3
-13 5 0 12 6 14 13 3 6 6 1 7 -13 1 -23 2 -23 10 -5 6 15 9 16 9 4 1 -9 8 -16
16 -16 11 0 12 4 4 13 -8 9 -5 11 11 7 11 -3 23 -10 27 -16 3 -6 1 -7 -5 -3
-8 5 -10 1 -5 -10 4 -11 8 -13 11 -6 2 7 15 12 28 12 14 0 23 -4 20 -8 -3 -5
1 -9 9 -9 8 0 12 4 9 9 -3 4 0 8 5 8 6 0 11 -5 11 -11 0 -8 5 -8 15 1 11 9 15
9 15 1 0 -8 5 -9 19 -1 23 12 34 13 27 2 -2 -4 7 -13 21 -19 20 -10 22 -9 13
1 -8 10 -7 15 5 20 9 3 13 2 10 -3 -3 -5 -1 -12 5 -16 5 -3 10 -2 10 3 0 6 9
8 20 5 11 -3 20 -9 20 -14 0 -5 -8 -6 -17 -3 -13 4 -15 3 -5 -4 8 -5 29 -7 48
-5 19 2 43 -1 54 -7 15 -8 20 -8 20 2 0 9 3 9 9 -2 6 -8 7 -18 4 -24 -3 -5 -1
-6 5 -2 6 4 9 12 6 20 -3 7 2 13 10 13 8 0 13 -4 10 -9 -3 -4 2 -8 11 -8 9 0
14 4 11 9 -12 19 28 4 44 -17 14 -16 20 -18 30 -9 9 9 11 9 6 0 -6 -12 18 -12
30 0 4 4 16 -1 27 -10 11 -10 17 -13 13 -6 -9 16 83 16 102 0 9 -7 11 -6 6 7
-3 9 -1 16 5 16 6 0 11 -8 12 -17 0 -10 3 -13 5 -7 5 11 55 10 75 -1 8 -5 10
-4 5 3 -4 7 -2 12 3 12 6 0 11 -6 11 -12 0 -9 4 -8 10 2 9 13 10 13 11 0 0
-10 3 -8 9 5 7 16 9 16 9 4 1 -9 8 -20 17 -23 9 -3 12 -11 8 -18 -6 -10 -3 -9
9 0 9 8 22 10 29 6 9 -6 9 -3 -1 10 -10 12 -16 14 -21 5 -5 -7 -10 -8 -14 -1
-11 18 21 21 40 4 20 -18 38 -22 49 -10 4 4 17 1 29 -7 25 -18 39 -19 31 -3
-4 7 0 6 7 -4 10 -12 18 -14 32 -6 16 9 17 7 12 -13 -3 -13 -3 -18 0 -11 3 6
11 9 16 6 6 -4 8 -2 5 3 -4 6 0 14 9 17 12 5 14 1 9 -17 -4 -15 -3 -18 3 -9
11 17 14 16 52 -3 27 -14 29 -14 24 2 -5 16 -4 16 9 0 11 -13 23 -17 39 -12
18 5 20 4 8 -4 -12 -9 -11 -11 8 -11 12 0 22 -6 22 -12 0 -9 4 -8 10 2 8 12
10 12 10 1 0 -11 3 -11 17 0 14 12 16 12 11 -2 -5 -13 -1 -15 19 -11 20 4 24
2 18 -8 -5 -8 -4 -11 3 -6 6 4 9 13 5 21 -3 8 0 15 7 15 6 0 8 -5 4 -12 -5 -8
0 -9 15 -5 17 4 24 0 31 -16 5 -12 9 -17 9 -11 1 6 8 11 16 11 10 0 14 -6 10
-15 -4 -11 1 -11 22 3 16 10 22 12 16 4 -17 -17 -17 -30 0 -27 6 2 11 -2 10
-9 -2 -7 4 -10 12 -6 14 5 13 7 -1 18 -14 9 -14 14 -4 20 9 5 11 4 6 -3 -4 -7
-2 -13 3 -13 12 -2 26 -5 39 -9 4 -1 12 -1 17 0 6 1 7 -2 3 -5 -9 -9 42 -51
56 -47 5 2 3 -5 -5 -14 -9 -12 -9 -15 -1 -10 7 4 12 2 12 -5 0 -7 8 -9 21 -6
17 5 18 3 7 -11 -11 -13 -11 -14 1 -7 11 6 13 4 7 -11 -6 -15 -5 -17 5 -6 15
14 33 16 24 2 -3 -5 -2 -10 4 -10 5 0 13 5 16 10 4 6 11 8 16 4 5 -3 7 -9 4
-14 -7 -12 33 -24 78 -23 20 1 35 -3 31 -8 -3 -5 2 -9 10 -9 8 0 18 -4 21 -10
4 -6 -1 -7 -12 -4 -14 5 -15 4 -4 -4 10 -7 21 -7 32 -1 18 9 21 -4 5 -29 -7
-11 -4 -11 13 0 16 9 24 10 29 2 4 -7 25 -14 47 -18 22 -3 41 -5 43 -6 1 0 2
-7 2 -15 0 -18 11 -19 30 -2 8 6 7 2 -3 -9 -17 -21 -17 -21 8 -19 14 2 25 -1
25 -6 0 -6 4 -7 10 -4 6 3 10 1 10 -4 0 -6 5 -11 11 -11 5 0 8 4 5 8 -3 5 1 9
9 9 8 0 15 -4 15 -9 0 -4 7 -8 15 -8 8 0 15 6 15 13 0 8 4 7 10 -3 5 -8 10
-12 10 -8 0 9 79 -20 100 -37 8 -7 26 -16 39 -20 14 -4 34 -16 45 -26 18 -17
38 -23 51 -16 2 1 10 -7 18 -17 9 -12 19 -16 27 -11 9 6 11 4 5 -5 -6 -10 -3
-12 13 -8 16 4 19 2 15 -10 -5 -11 -2 -14 10 -9 10 4 17 2 17 -4 0 -6 9 -9 19
-6 10 2 25 0 32 -5 11 -8 10 -8 -4 -4 -10 3 -15 2 -12 -4 3 -5 28 -12 55 -16
33 -4 47 -10 43 -18 -4 -6 1 -5 10 3 9 7 17 9 17 4 0 -9 14 -13 53 -14 11 0
17 -5 14 -13 -3 -7 4 -12 18 -12 17 0 21 5 18 20 -2 13 1 10 9 -7 7 -16 16
-28 21 -28 4 1 8 0 10 0 1 -1 55 -2 120 -3 101 -1 117 1 112 14 -4 11 -1 10 9
-2 15 -20 31 -25 20 -6 -5 8 -3 8 7 2 8 -5 89 -9 180 -9 143 0 166 2 162 15
-4 12 -2 12 9 -1 10 -12 28 -15 78 -13 82 4 90 5 83 17 -3 5 9 7 26 5 20 -2
35 3 41 12 9 13 11 13 21 0 9 -13 10 -12 5 3 -3 9 -1 17 5 17 6 0 7 5 3 12 -4
7 -3 8 5 4 6 -4 8 -13 4 -19 -3 -7 3 -4 14 6 16 14 23 15 29 6 5 -8 3 -10 -6
-4 -9 5 -11 4 -6 -4 4 -6 12 -9 17 -5 5 3 7 9 5 12 -2 4 9 15 25 24 20 12 31
13 35 6 5 -7 2 -8 -6 -3 -9 5 -11 4 -6 -4 4 -6 12 -9 17 -5 5 3 6 10 3 16 -5
7 0 9 15 5 19 -5 20 -3 9 11 -10 12 -10 14 0 8 6 -4 12 -2 12 3 0 6 5 11 11
11 5 0 8 -4 5 -8 -3 -5 1 -9 9 -9 8 0 13 5 12 11 -1 6 9 12 22 14 19 3 21 6
10 13 -10 6 -8 9 11 9 14 0 31 9 38 20 13 21 33 19 28 -3 -1 -7 -1 -9 1 -4 3
4 10 4 15 1 7 -5 8 -2 3 6 -6 10 -4 12 10 6 16 -6 16 -4 4 10 -13 16 -12 16 9
5 14 -7 22 -8 22 -1 0 5 5 9 12 8 7 -2 13 3 14 10 1 6 2 15 3 18 0 4 9 0 18
-7 9 -8 14 -9 10 -3 -4 7 2 14 13 17 11 3 18 1 14 -4 -7 -12 3 -11 27 2 11 5
16 15 13 21 -4 7 -3 8 5 4 6 -4 9 -12 6 -17 -4 -5 -1 -9 6 -9 7 0 9 8 6 21 -4
16 -3 18 8 9 10 -8 15 -8 20 0 5 8 13 6 26 -6 18 -16 19 -16 13 -1 -7 18 11
24 21 7 4 -7 12 -7 25 0 27 14 53 13 44 -2 -4 -8 -3 -10 2 -5 9 8 10 12 13 38
1 8 6 8 16 -1 12 -10 15 -9 15 4 0 11 4 14 13 9 23 -14 35 -11 32 9 -4 16 -2
18 11 7 8 -6 17 -9 21 -5 3 3 1 6 -5 6 -6 0 -9 7 -5 16 5 13 7 13 14 2 7 -10
11 -7 15 10 4 12 11 22 16 22 5 0 6 -6 2 -12 -6 -10 -4 -10 8 0 8 7 24 10 34
6 16 -5 17 -4 4 6 -11 9 -12 13 -2 17 6 2 10 9 7 13 -3 5 0 12 6 16 8 4 9 3 5
-4 -10 -16 2 -15 19 2 8 7 11 17 7 20 -3 4 4 9 16 13 12 3 22 12 22 19 0 8 3
13 8 13 4 -1 14 -1 22 0 13 1 13 3 0 10 -8 6 -19 7 -25 5 -5 -3 0 3 13 14 12
11 22 25 22 31 0 6 8 7 18 4 15 -6 16 -5 2 12 -12 15 -12 17 -1 10 11 -6 13
-4 8 8 -3 9 -1 19 5 23 6 4 8 3 4 -4 -3 -6 -1 -14 5 -17 6 -4 13 2 16 14 3 12
10 21 15 21 5 0 7 -4 4 -8 -2 -4 6 -8 19 -8 13 0 21 4 19 8 -3 5 -10 6 -15 3
-5 -4 -9 -2 -9 3 0 6 7 13 16 16 8 3 12 2 9 -4 -9 -14 9 -12 24 3 7 6 12 8 11
2 -5 -24 1 -27 16 -9 8 10 13 13 9 6 -8 -16 27 -16 44 1 9 7 11 7 8 1 -11 -19
19 -24 41 -8 13 9 23 11 27 4 3 -5 11 -10 16 -10 6 0 8 3 6 8 -3 4 36 8 86 10
58 2 94 7 99 15 6 9 8 8 8 -2 0 -12 3 -12 12 -3 7 7 40 12 78 12 36 0 71 5 77
11 8 8 13 8 17 0 4 -6 12 -11 17 -11 6 0 7 6 3 13 -5 8 -2 8 9 -2 14 -11 17
-11 17 0 0 11 2 11 10 -1 9 -13 10 -13 10 0 0 13 1 13 10 0 8 -12 10 -12 10
-1 0 10 3 11 13 2 9 -7 17 -7 23 -1 6 6 25 11 44 13 21 2 34 8 32 16 -2 9 3 9
17 1 25 -13 34 -13 25 1 -4 8 0 8 15 0 16 -9 21 -9 19 1 -2 6 4 13 12 14 37 3
41 4 36 13 -3 4 5 8 17 7 12 -1 21 -8 19 -15 -1 -7 2 -10 8 -6 6 3 8 10 5 15
-3 4 2 10 10 13 9 4 12 1 9 -8 -6 -15 20 -15 33 0 4 4 2 5 -6 0 -10 -6 -12 -4
-7 4 6 9 11 9 22 0 11 -9 14 -8 14 2 0 10 3 10 12 1 9 -9 15 -7 25 6 14 16 14
16 9 -3 -6 -19 -5 -19 8 -1 9 10 20 15 27 10 8 -5 10 -3 4 5 -5 9 -1 12 12 9
11 -2 28 4 38 12 11 8 16 10 11 3 -5 -9 -2 -11 10 -6 13 5 15 3 9 -7 -5 -9 -4
-11 4 -6 8 5 9 12 2 20 -7 9 -4 12 14 12 17 0 21 -3 15 -11 -7 -8 -5 -12 5
-12 8 0 12 3 10 7 -2 4 3 16 11 26 9 10 13 13 9 7 -4 -9 1 -13 14 -13 12 0 21
6 21 13 0 8 4 7 11 -3 8 -12 12 -12 16 -2 4 9 8 10 18 2 10 -8 19 -8 34 2 17
10 25 10 42 0 12 -8 18 -9 14 -3 -6 11 14 16 44 11 9 -1 12 4 7 16 -5 14 -4
15 9 4 9 -8 15 -9 15 -2 0 7 14 9 35 7 24 -3 35 -1 35 8 0 8 3 8 8 1 9 -13 52
-13 52 1 0 5 5 3 10 -5 6 -10 10 -11 10 -2 0 6 12 12 26 12 16 0 23 4 18 12
-5 8 0 9 14 6 12 -4 22 -3 22 1 0 4 14 5 31 3 24 -4 30 -2 24 8 -6 10 -4 11 6
4 18 -11 39 -14 36 -6 -1 4 2 8 8 9 5 1 12 10 16 20 6 15 8 14 8 -7 1 -20 3
-22 11 -10 9 14 18 17 80 23 14 1 24 7 23 14 -2 7 6 10 19 8 12 -3 27 0 35 6
7 6 20 9 28 5 8 -3 15 -1 15 4 0 6 3 9 8 9 23 -4 52 2 52 12 0 5 -5 7 -12 3
-7 -4 -8 -3 -4 5 6 8 12 9 20 2 9 -7 16 -7 24 1 9 9 12 9 12 -2 0 -13 2 -13
10 0 8 12 10 12 10 1 0 -8 3 -11 7 -7 8 7 9 11 12 39 1 7 4 8 9 2 10 -14 32
-17 32 -4 0 5 5 7 10 4 6 -3 10 0 10 7 0 9 3 9 10 -2 8 -13 10 -12 10 3 0 9 5
17 11 17 5 0 7 4 4 10 -3 5 0 7 8 4 8 -3 19 2 26 10 7 8 21 12 33 8 14 -3 19
-1 14 6 -5 8 2 12 19 12 17 0 24 -4 19 -12 -4 -7 -3 -8 4 -4 6 4 8 14 5 23 -4
10 -2 14 4 10 6 -4 14 1 17 10 5 12 9 14 18 5 15 -15 28 -15 28 -1 0 5 -5 7
-12 3 -7 -4 -8 -3 -4 5 6 9 11 9 21 1 10 -8 13 -6 11 7 0 10 -5 21 -11 25 -6
5 -6 8 1 8 6 0 18 -8 25 -17 12 -14 12 -16 0 -8 -10 5 -12 4 -7 -4 4 -6 12 -9
17 -5 5 3 7 9 4 14 -3 5 -1 11 5 15 5 3 10 1 10 -5 0 -6 5 -8 10 -5 6 4 8 10
5 15 -3 5 0 12 6 16 7 4 9 3 6 -3 -4 -6 0 -13 8 -16 9 -4 12 -1 8 9 -4 12 1
14 22 10 22 -4 25 -3 14 10 -10 12 -9 13 6 8 13 -5 16 -4 10 5 -6 11 -3 11 16
0 23 -12 23 -11 9 6 -9 11 -10 16 -2 11 7 -4 12 -2 12 5 0 9 3 9 14 0 10 -8
16 -9 21 -1 3 6 11 7 17 4 7 -4 8 -2 4 5 -6 9 -12 9 -24 -1 -10 -7 -6 0 7 14
13 15 26 26 30 26 15 -4 51 14 46 23 -4 5 -1 9 4 9 6 0 11 -4 11 -10 0 -5 5
-10 11 -10 5 0 7 5 4 10 -3 5 -1 10 5 10 6 0 8 5 4 13 -5 8 -2 7 9 -2 15 -12
17 -12 12 2 -4 8 -1 18 6 23 8 5 10 3 5 -7 -4 -8 -1 -6 7 3 11 14 16 15 27 5
10 -10 10 -7 0 13 -13 24 -12 24 5 10 17 -14 18 -13 12 2 -4 12 -2 15 9 11 8
-3 25 2 39 11 14 9 30 14 36 11 5 -4 8 -1 7 7 -2 7 3 12 10 10 8 -1 11 2 8 7
-8 12 -30 8 -52 -9 -11 -8 -9 -3 5 12 19 22 28 25 42 17 14 -7 17 -6 13 4 -5
15 -27 16 -58 2 -12 -5 -21 -3 -27 6 -7 12 -10 12 -21 0 -7 -8 -8 -11 -2 -8 6
3 11 0 11 -8 0 -13 -4 -12 -19 2 -14 13 -18 13 -18 2 0 -11 -2 -11 -10 1 -9
13 -10 13 -10 0 -1 -11 -4 -10 -15 4 -12 16 -15 17 -15 4 0 -15 -36 -18 -57
-5 -5 3 -15 2 -23 -3 -9 -5 -19 -5 -27 2 -7 6 -13 7 -13 2 0 -5 -43 -9 -96 -9
-72 -1 -98 -4 -105 -15 -8 -11 -12 -12 -16 -2 -2 6 -11 12 -19 12 -8 0 -14 6
-14 13 0 17 34 49 43 41 4 -4 10 1 13 10 5 14 9 15 16 4 7 -9 8 -7 5 10 -3 12
-1 20 4 16 5 -3 9 3 9 12 0 10 3 14 6 11 4 -4 19 2 35 13 20 15 29 17 32 8 3
-7 6 -4 7 7 l1 20 9 -20 c8 -18 9 -18 10 5 1 14 4 19 7 12 2 -6 9 -10 14 -6 5
3 19 7 30 9 12 3 24 7 28 11 3 4 -2 4 -11 1 -10 -4 -18 -2 -18 3 0 6 10 10 23
10 13 0 32 7 43 15 19 15 19 15 -1 8 -11 -3 -17 -3 -13 2 11 12 68 14 68 1 0
-6 5 -4 10 4 5 8 10 11 10 6 0 -5 6 -3 13 3 8 6 17 8 21 4 4 -4 4 1 0 11 -6
16 -4 17 14 7 18 -10 21 -9 15 5 -5 14 -3 15 14 5 16 -8 24 -7 33 4 8 10 17
12 28 6 10 -6 27 -2 49 10 18 10 33 16 33 13 0 -4 7 -1 15 6 8 6 20 8 26 4 9
-5 10 -2 6 9 -4 11 -1 15 14 12 10 -2 19 2 19 8 0 7 4 6 10 -3 8 -12 10 -12
10 5 0 16 2 17 10 5 8 -13 11 -13 22 -1 11 11 11 13 -1 6 -10 -6 -12 -4 -6 4
4 7 18 11 30 9 16 -4 22 -1 18 9 -6 15 8 17 25 3 6 -6 10 -7 7 -4 -8 12 16 44
34 44 19 0 63 45 53 55 -4 3 1 3 11 -1 13 -5 16 -2 11 10 -4 11 -2 16 6 14 8
-2 14 10 17 28 3 27 -4 40 -48 85 -29 30 -57 54 -63 54 -6 1 -10 6 -8 13 1 7
-5 12 -13 12 -8 0 -15 7 -15 16 0 14 -3 15 -17 3 -10 -7 -15 -10 -12 -6 6 8
-47 68 -64 75 -4 1 -25 20 -47 42 -22 22 -44 40 -50 40 -5 0 -10 5 -10 10 0 6
-9 10 -21 10 -11 0 -17 5 -14 10 6 9 -8 14 -27 11 -5 0 -8 3 -8 9 0 5 -10 15
-22 21 -22 12 -22 11 -8 -7 14 -18 14 -18 -2 -5 -10 7 -18 20 -18 28 0 12 -3
13 -14 4 -12 -10 -13 -8 -9 10 4 14 2 20 -4 16 -6 -4 -13 0 -16 7 -3 8 -14 15
-24 15 -38 1 -53 5 -53 13 0 4 -9 8 -21 8 -13 0 -18 4 -14 12 4 7 -1 4 -9 -6
-16 -20 -21 -12 -16 24 1 12 -1 13 -11 2 -16 -15 -33 -16 -23 0 5 8 2 9 -10 5
-9 -4 -15 -3 -11 2 8 14 -6 42 -19 34 -8 -4 -8 -2 1 7 14 15 6 40 -13 40 -8 0
-14 7 -14 16 0 8 -4 13 -9 10 -5 -3 -12 1 -15 10 -3 8 -10 12 -16 9 -5 -3 -10
-1 -10 4 0 6 -6 11 -14 11 -20 0 -46 28 -46 48 0 15 2 15 11 2 8 -11 12 -12
16 -2 6 15 43 16 43 1 0 -5 8 -9 18 -8 9 1 25 -1 34 -5 10 -4 37 -9 60 -9 24
-1 46 -6 50 -12 5 -6 8 -5 8 3 0 9 5 10 18 4 9 -5 27 -8 40 -7 13 1 25 -2 28
-7 3 -4 14 -8 25 -8 10 0 19 -5 19 -11 0 -5 5 -7 10 -4 6 4 16 2 23 -3 7 -6
36 -9 64 -9 40 2 52 -1 50 -12 -2 -16 30 -24 40 -9 3 6 2 8 -4 5 -5 -3 -10 0
-10 8 0 13 3 13 17 0 9 -8 20 -12 25 -8 4 5 5 2 1 -5 -4 -7 -13 -9 -19 -5 -7
4 -6 0 2 -10 15 -18 26 -23 16 -7 -4 6 5 10 20 10 18 0 24 -4 19 -12 -5 -9 -2
-9 9 1 9 7 17 10 17 6 0 -4 8 -1 17 6 14 10 13 8 -2 -11 l-20 -24 27 17 c16
10 28 15 28 11 0 -4 6 -1 14 5 18 15 34 -5 17 -22 -9 -9 -10 -7 -5 8 7 17 5
18 -8 8 -8 -7 -18 -10 -21 -6 -4 3 -7 1 -7 -5 0 -7 6 -12 13 -13 6 0 20 -2 30
-4 9 -2 17 3 17 10 0 24 -12 45 -26 45 -8 0 -14 5 -14 11 0 5 5 7 11 3 8 -4 7
0 -1 15 -6 13 -16 19 -23 14 -9 -5 -9 -3 0 8 9 11 8 18 -1 31 -7 10 -15 16
-18 13 -2 -2 -12 10 -22 27 -13 22 -15 29 -5 24 8 -4 1 2 -14 14 -23 19 -26
25 -15 38 8 9 8 13 2 9 -7 -4 -17 5 -24 23 -7 17 -16 30 -21 30 -5 0 -9 5 -9
11 0 5 5 7 12 3 7 -5 8 -3 4 5 -5 7 -15 10 -23 7 -8 -3 -11 -1 -8 4 3 6 2 10
-3 10 -5 0 -8 12 -6 26 1 14 0 23 -3 20 -4 -3 -13 0 -22 6 -9 8 -8 3 3 -10 17
-19 17 -22 3 -16 -15 6 -21 17 -14 29 1 2 -7 11 -18 20 l-20 15 20 -5 c11 -3
7 1 -10 9 -26 12 -27 14 -10 19 18 4 17 5 -2 6 -13 0 -23 6 -23 12 0 5 -6 7
-13 3 -8 -5 -8 -2 2 9 9 11 10 17 2 17 -6 0 -11 5 -11 11 0 5 5 7 12 3 6 -4 8
-3 4 4 -3 6 -15 9 -26 7 -14 -3 -17 1 -13 12 4 9 2 14 -3 11 -5 -2 -19 6 -31
19 -25 26 -19 32 8 7 13 -12 19 -12 25 -3 4 8 3 10 -4 5 -7 -4 -12 -3 -12 3 0
5 -9 13 -21 16 -11 4 -18 13 -15 20 7 18 -5 27 -19 15 -9 -8 -12 -3 -9 22 2
17 1 29 -2 25 -11 -10 -36 23 -30 39 3 9 2 12 -4 9 -12 -7 -42 20 -33 29 4 3
1 6 -6 6 -7 0 -9 5 -5 13 6 9 4 9 -8 -1 -13 -10 -18 -10 -24 -1 -4 8 -3 9 4 5
7 -4 12 -1 12 8 0 15 -16 16 -39 2 -9 -6 -8 0 4 17 16 25 16 25 -4 20 -12 -3
-21 -1 -21 6 0 6 6 11 13 11 6 0 3 6 -8 12 -21 12 -38 35 -41 56 -1 6 1 10 5
7 4 -2 8 2 8 11 0 10 -7 12 -20 8 -17 -5 -17 -3 -7 16 7 12 8 20 2 16 -5 -3
-13 1 -16 10 -3 8 -10 12 -16 9 -6 -4 -7 1 -3 11 5 13 3 15 -8 9 -12 -8 -12
-6 0 8 11 13 11 17 1 17 -8 0 -10 3 -7 6 8 8 -24 64 -36 64 -4 0 -5 5 -2 10 3
6 2 10 -4 10 -5 0 -12 -6 -14 -12 -3 -7 -4 2 -3 20 3 24 0 30 -8 23 -11 -10
-14 -2 -18 46 -1 7 -5 10 -10 7 -16 -10 -30 7 -17 22 8 10 8 14 0 15 -6 1 -15
2 -21 3 -19 2 -9 21 11 20 11 -1 17 1 14 5 -4 3 -12 6 -18 6 -7 1 -11 7 -9 15
3 11 0 11 -14 -1 -16 -13 -17 -12 -6 6 9 17 7 22 -11 33 -22 13 -22 13 3 7
l25 -5 -23 12 c-15 7 -22 18 -19 29 3 11 0 16 -8 13 -6 -3 -18 3 -26 12 -9 12
-10 15 -1 10 6 -4 12 -2 12 3 0 6 -5 11 -11 11 -6 0 -9 8 -6 19 3 13 -1 18
-16 17 -11 -1 -22 6 -24 14 -4 13 -3 13 6 0 9 -12 10 -11 8 7 -2 12 -6 26 -10
29 -12 12 -8 26 5 18 7 -4 8 -3 4 5 -6 8 -12 9 -20 2 -10 -8 -16 -4 -25 16
-11 24 -11 25 5 12 16 -13 16 -12 6 7 -6 12 -8 24 -5 28 3 3 1 6 -5 6 -7 0
-12 -6 -12 -12 0 -9 -3 -8 -9 2 -11 17 -5 30 12 26 7 -1 9 -1 4 1 -4 3 -5 9
-2 14 4 5 0 6 -7 4 -9 -4 -14 4 -16 22 -1 15 -8 30 -15 35 -9 6 -8 8 2 8 11 0
10 4 -4 13 -10 8 -15 19 -11 25 4 7 2 12 -4 12 -6 0 -9 4 -5 9 3 5 0 13 -6 16
-5 4 -8 13 -5 21 3 9 -1 14 -12 14 -15 0 -15 2 -2 10 14 9 7 14 -13 11 -4 -1
-3 8 4 20 8 15 8 19 0 15 -6 -4 -11 0 -11 9 0 10 -5 13 -12 9 -7 -5 -8 -3 -2
7 11 18 14 39 6 38 -26 -4 -34 2 -23 15 9 11 9 15 0 18 -6 2 -11 16 -11 31 0
21 -5 27 -22 28 -20 0 -21 1 -1 9 11 5 14 9 6 9 -11 1 -11 4 -1 16 10 13 11
18 1 28 -10 9 -11 8 -6 -5 4 -10 3 -18 -3 -18 -12 0 -11 18 2 39 6 9 5 12 -2
7 -6 -4 -11 1 -11 11 -1 38 -5 52 -12 47 -4 -2 -10 0 -14 6 -3 5 0 10 7 11 7
0 4 4 -7 9 -19 8 -19 9 -1 9 16 1 17 3 5 18 -8 9 -13 19 -12 22 1 3 -5 5 -14
3 -14 -3 -14 -2 0 13 15 15 13 50 -2 40 -4 -2 -8 2 -8 10 0 8 4 12 9 9 4 -3 8
-1 8 5 0 5 -5 13 -10 16 -6 4 -10 21 -10 38 1 50 -10 110 -23 126 -10 12 -9
13 3 6 13 -7 13 -6 0 11 -9 10 -17 33 -19 49 -2 17 -7 32 -12 33 -5 2 -9 11
-9 21 0 9 -4 21 -9 26 -10 10 -25 94 -23 128 0 11 -4 15 -11 10 -7 -4 -5 2 3
12 8 10 10 16 3 12 -7 -5 -11 -1 -11 10 2 29 -12 90 -27 119 -7 14 -11 33 -8
40 3 8 0 14 -5 14 -6 0 -9 8 -7 18 6 32 -11 87 -25 84 -11 -3 -11 0 0 13 18
22 21 46 8 62 -8 10 -7 12 4 8 12 -5 14 3 13 40 0 25 2 45 6 45 8 0 6 20 -4
36 -7 13 1 24 17 24 6 0 4 -5 -4 -10 -8 -5 -10 -10 -4 -10 16 0 23 10 17 26
-3 8 -10 11 -17 7 -6 -3 -3 2 6 13 16 19 18 23 18 45 0 5 6 7 13 3 9 -6 9 -4
-1 8 -10 13 -10 17 0 22 7 3 3 3 -9 0 -14 -3 -23 -1 -23 6 0 6 4 9 8 6 4 -2
14 0 22 5 13 8 13 10 0 19 -13 8 -12 10 4 10 18 0 18 1 2 19 -16 18 -16 19 1
17 12 -1 17 5 15 18 -2 10 1 15 7 12 5 -4 13 -1 17 5 4 8 3 9 -4 5 -7 -4 -12
-3 -12 3 0 5 5 13 10 16 6 3 10 15 10 26 0 12 4 17 11 13 7 -4 10 -1 7 7 -3 8
-11 13 -18 11 -10 -2 -11 0 -2 11 7 8 8 18 4 22 -4 5 -1 5 6 1 7 -4 10 -12 7
-17 -3 -5 1 -6 9 -3 9 3 13 11 9 18 -12 18 -12 37 -1 30 6 -4 8 1 4 13 -5 15
0 23 20 32 20 9 23 15 15 24 -8 10 -7 17 2 27 8 9 9 11 0 6 -6 -3 -15 -1 -19
5 -4 7 -3 9 3 6 6 -4 19 1 29 9 10 9 13 13 7 9 -7 -3 -13 -2 -13 4 0 5 10 13
22 17 20 6 20 7 3 16 -14 8 -15 12 -4 19 10 6 11 9 2 9 -7 0 -13 5 -13 11 0 5
4 8 9 4 5 -3 12 -1 16 5 3 5 2 10 -4 10 -12 0 -8 24 7 42 6 8 8 19 4 23 -4 5
-1 5 7 0 11 -6 13 -1 9 23 -3 19 -1 29 6 25 5 -4 7 1 3 11 -4 9 -3 15 2 12 4
-3 13 6 20 20 6 14 7 23 2 20 -5 -3 -8 5 -7 18 1 20 4 22 16 13 11 -9 10 -5
-3 15 -12 19 -14 29 -5 34 7 4 8 3 4 -4 -10 -16 9 -15 22 1 8 9 8 17 0 27 -8
12 -8 11 -3 -5 5 -15 3 -17 -6 -8 -15 15 -1 36 18 28 12 -4 13 -2 5 8 -9 10
-8 17 1 27 9 10 9 11 0 6 -16 -9 -16 -1 -3 25 7 12 7 19 1 19 -6 0 -8 7 -5 15
4 9 11 12 18 8 7 -5 3 1 -9 11 l-20 19 23 -6 c12 -3 20 -1 17 3 -3 5 -1 11 4
14 5 3 8 27 6 53 -1 27 1 58 6 69 4 13 3 26 -4 34 -10 10 -8 12 7 6 16 -5 17
-4 6 9 -7 8 -9 15 -5 15 4 0 3 6 -2 13 -6 6 -10 20 -10 29 0 13 4 15 18 8 13
-7 17 -6 15 5 -1 8 -6 18 -11 22 -4 4 -5 2 -1 -4 10 -19 1 -16 -15 4 -10 11
-10 14 -1 9 7 -4 12 -1 12 9 0 10 5 13 13 9 7 -5 6 0 -3 11 -14 17 -13 18 2
12 12 -4 15 -2 12 8 -3 8 -13 11 -22 8 -13 -4 -13 -2 2 9 10 8 16 20 12 26 -4
7 -3 12 2 12 6 0 8 9 5 20 -3 11 -10 17 -17 13 -7 -4 -6 -1 1 9 7 8 9 19 5 23
-4 5 1 5 10 2 12 -4 15 -2 11 8 -3 8 -9 12 -14 9 -5 -3 -6 2 -3 10 3 9 10 13
15 10 5 -3 9 0 9 5 0 6 -4 11 -8 11 -5 0 -9 7 -9 15 0 20 7 19 24 -2 13 -16
13 -16 3 5 -6 12 -8 27 -5 32 3 6 -1 7 -9 4 -9 -3 -16 -1 -16 5 0 6 6 11 14
11 8 0 18 5 22 12 5 7 3 8 -6 3 -8 -5 -11 -3 -8 6 3 8 11 13 17 11 7 -1 10 2
6 8 -3 6 -10 8 -15 5 -4 -3 -10 1 -13 9 -3 8 1 13 8 12 8 0 13 4 12 9 -1 6 -5
9 -9 7 -5 -1 -8 2 -8 8 0 5 4 10 9 10 17 0 19 39 3 61 -11 16 -11 20 -2 14 10
-6 12 -4 7 8 -3 9 -1 19 5 23 7 5 8 2 3 -7 -5 -8 -4 -11 0 -6 11 9 14 47 4 47
-4 0 -10 -6 -12 -12 -4 -10 -6 -10 -6 -1 -1 6 4 15 9 18 6 3 10 11 10 16 0 6
-5 7 -11 4 -6 -4 -5 2 2 13 11 17 16 19 29 9 12 -9 13 -9 3 3 -16 17 -17 34
-3 25 6 -4 2 9 -9 29 -14 25 -16 33 -6 30 10 -4 12 0 8 17 -5 17 -3 20 8 14
11 -7 11 -5 -1 10 -9 11 -10 16 -2 11 6 -4 12 -3 12 3 0 5 -5 13 -10 16 -7 4
-7 11 -2 18 16 21 23 49 10 41 -6 -4 -8 -3 -4 4 3 5 0 13 -6 16 -7 3 -4 4 7 1
16 -4 21 0 22 17 2 19 0 20 -8 8 -9 -12 -10 -12 -5 3 3 10 6 20 6 23 0 2 8 1
18 -2 10 -4 13 -3 6 3 -12 9 -25 53 -15 51 20 -2 23 4 6 15 -14 11 -15 16 -5
22 9 6 11 4 5 -5 -5 -9 -4 -11 3 -6 12 7 11 40 -2 53 -4 4 3 15 16 25 l23 17
-25 -5 c-24 -4 -24 -4 -4 7 15 7 21 20 20 39 0 16 -5 26 -11 22 -5 -3 -5 1 2
9 6 8 11 42 10 81 -1 36 1 64 5 62 5 -3 8 5 8 18 0 13 0 37 1 53 1 17 0 62 -2
102 -2 40 1 76 6 80 4 5 5 2 0 -6 -5 -9 -4 -12 2 -8 6 4 10 20 9 37 -1 17 1
36 5 42 4 7 2 19 -4 27 -9 12 -9 13 1 7 7 -4 12 -1 12 9 0 9 -4 14 -8 11 -10
-6 -9 50 1 60 12 12 8 26 -5 18 -7 -4 -5 1 4 12 13 14 15 23 7 31 -17 17 -18
46 -2 76 8 16 9 27 3 27 -5 0 -10 -5 -10 -12 0 -6 -3 -8 -7 -5 -3 4 2 15 11
26 12 13 14 21 6 26 -8 5 -8 11 1 21 6 8 9 17 5 21 -3 3 -6 1 -6 -5 0 -7 -5
-12 -10 -12 -6 0 -4 13 5 30 16 31 13 35 -25 31 -13 -2 -13 -1 0 8 8 5 17 8
21 5 4 -2 11 1 15 7 4 8 3 9 -5 5 -17 -11 -26 23 -12 45 12 20 2 26 -15 9 -7
-7 -11 -6 -11 4 0 8 4 13 9 10 13 -8 10 10 -4 24 -10 10 -8 14 10 18 12 4 22
11 22 16 0 6 -7 8 -15 5 -8 -4 -17 -1 -21 5 -4 7 -3 8 4 4 16 -10 15 6 0 24
-7 8 -4 7 7 -2 20 -16 21 -16 21 2 0 10 -4 16 -8 14 -4 -3 -8 2 -8 10 0 10 7
13 20 11 14 -3 18 0 14 8 -16 28 -37 46 -47 40 -6 -3 -7 -1 -3 6 4 6 13 9 19
5 7 -3 3 2 -8 11 -20 17 -20 17 5 11 l25 -7 -25 22 c-14 12 -18 20 -9 17 12
-5 15 -1 11 18 -4 20 -1 23 14 18 15 -5 16 -4 4 4 -8 6 -17 9 -21 6 -4 -2 -11
1 -15 7 -4 8 -3 9 4 5 7 -4 12 -2 12 4 0 6 4 8 10 5 5 -3 10 -2 10 3 0 6 -7
13 -16 16 -10 4 -13 2 -8 -7 5 -9 4 -9 -6 0 -12 11 -11 16 6 29 19 15 19 15
-1 6 -11 -5 -30 -8 -42 -7 -13 1 -23 -2 -23 -7 0 -4 -5 -8 -11 -8 -5 0 -8 3
-6 8 3 4 -5 7 -18 7 -13 0 -21 -4 -17 -9 3 -5 -2 -7 -11 -3 -11 4 -17 1 -17
-9 0 -12 4 -13 23 -3 17 9 19 9 11 0 -18 -19 -64 -24 -64 -7 0 8 -4 17 -9 20
-5 4 -7 -3 -4 -14 4 -15 0 -20 -16 -20 -15 0 -20 4 -16 13 4 6 0 4 -8 -5 -11
-14 -16 -15 -26 -5 -10 9 -11 8 -5 -8 7 -18 6 -19 -11 -5 -10 8 -16 11 -13 5
3 -5 0 -16 -8 -23 -10 -9 -14 -9 -14 -1 0 8 -5 7 -17 -2 -18 -16 -23 -16 -34
2 -6 11 -12 10 -27 -4 -14 -13 -21 -14 -30 -5 -9 9 -12 9 -12 -1 0 -7 -4 -9
-10 -6 -5 3 -10 1 -10 -4 0 -6 -12 -11 -27 -11 -22 0 -25 -2 -13 -10 9 -6 10
-10 3 -10 -6 0 -15 5 -18 10 -5 8 -11 7 -20 0 -8 -7 -19 -9 -24 -5 -7 4 -8 -1
-4 -11 4 -12 3 -15 -5 -10 -8 4 -12 0 -12 -10 0 -16 -1 -16 -16 2 -8 10 -13
14 -10 7 8 -15 -10 -27 -19 -13 -8 13 -25 13 -25 -1 0 -5 5 -7 10 -4 6 3 10
-1 10 -9 0 -10 -6 -13 -17 -9 -11 5 -14 3 -8 -6 6 -10 3 -11 -14 -2 -17 9 -21
9 -21 -2 0 -8 -8 -21 -17 -28 -15 -11 -16 -11 -5 1 6 8 12 21 12 30 -1 12 -2
12 -11 -2 -5 -10 -15 -18 -20 -18 -6 0 -7 5 -3 12 4 7 3 8 -5 4 -6 -4 -9 -12
-6 -17 4 -5 1 -9 -5 -9 -6 0 -9 -3 -7 -8 3 -4 -8 -7 -23 -7 -16 -1 -26 3 -24
7 3 5 9 6 14 3 5 -3 11 -1 14 4 5 8 -15 8 -34 1 -3 -1 -8 -2 -11 -2 -3 1 -5
-10 -3 -24 1 -13 -2 -22 -7 -18 -5 3 -7 11 -3 17 3 7 -2 3 -10 -7 -9 -11 -16
-14 -16 -7 0 7 -5 9 -10 6 -6 -4 -7 -11 -4 -17 4 -7 2 -8 -5 -4 -6 4 -9 11 -7
15 3 4 -8 7 -24 6 -23 0 -26 -2 -17 -14 10 -12 7 -13 -18 -7 -29 7 -29 7 -10
-9 11 -9 14 -14 8 -10 -7 3 -13 1 -13 -6 0 -7 -6 -5 -13 6 -11 14 -16 15 -22
5 -6 -9 -4 -11 5 -5 9 5 11 4 6 -4 -6 -9 -11 -9 -21 -1 -9 7 -16 6 -24 -3 -6
-8 -9 -16 -6 -19 3 -2 -2 -5 -10 -5 -18 0 -19 8 -3 27 11 12 10 12 -4 1 -10
-7 -18 -23 -18 -35 0 -12 -3 -16 -8 -10 -4 6 -15 13 -24 17 -13 4 -15 2 -11
-11 6 -14 4 -15 -9 -4 -11 9 -18 10 -23 2 -3 -6 -11 -7 -17 -4 -6 4 -5 -3 2
-16 10 -18 9 -21 -1 -15 -20 13 -69 12 -58 -1 5 -7 3 -11 -6 -11 -8 0 -15 5
-16 11 0 6 -4 1 -9 -11 -7 -16 -14 -21 -26 -16 -12 5 -15 3 -9 -6 6 -10 3 -11
-15 -1 -20 11 -22 10 -17 -3 4 -11 2 -14 -8 -10 -8 3 -12 10 -8 17 7 12 -38
-23 -49 -39 -5 -7 -8 -7 -8 0 0 6 -7 1 -15 -9 -11 -14 -15 -16 -15 -5 0 11 -2
12 -9 1 -4 -8 -11 -13 -15 -13 -3 0 -11 -1 -18 -3 -36 -11 -74 -19 -83 -17 -5
2 -7 0 -3 -4 9 -9 -16 -35 -33 -35 -7 0 -31 -11 -54 -25 -23 -13 -45 -22 -48
-18 -4 3 -9 -1 -13 -10 -3 -9 -14 -14 -25 -12 -11 2 -22 -2 -25 -9 -3 -8 -21
-17 -40 -21 -19 -3 -32 -10 -29 -16 4 -5 -1 -9 -10 -9 -18 0 -71 -27 -93 -47
-7 -7 -19 -13 -25 -13 -15 0 -120 -52 -128 -63 -3 -5 -10 -9 -15 -10 -5 -1 -8
-5 -7 -9 1 -3 -4 -9 -13 -12 -8 -3 -13 -2 -10 2 3 5 -1 9 -8 9 -8 0 -11 -8 -8
-21 5 -19 4 -20 -13 -6 -17 14 -18 13 -12 -3 4 -10 3 -16 -2 -12 -5 3 -11 2
-14 -2 -2 -5 -3 -3 -1 3 1 6 -4 11 -11 11 -8 0 -11 -7 -7 -15 3 -9 1 -13 -5
-9 -6 4 -13 -3 -16 -14 -5 -18 -8 -19 -27 -9 -18 10 -21 9 -15 -1 6 -9 3 -11
-9 -6 -11 4 -15 3 -10 -4 4 -8 -1 -9 -17 -4 -13 3 -19 3 -14 -2 6 -4 11 -14
13 -22 3 -12 1 -12 -14 0 -10 8 -15 9 -11 3 6 -11 -12 -32 -40 -48 -9 -5 -11
-1 -7 11 5 16 4 16 -6 -1 -10 -15 -14 -16 -21 -5 -6 10 -8 5 -5 -14 4 -24 3
-27 -10 -17 -10 9 -14 9 -14 1 0 -6 -11 -11 -25 -11 -16 0 -25 -6 -25 -16 0
-8 -4 -12 -10 -9 -5 3 -10 1 -10 -6 0 -8 -5 -7 -16 2 -15 12 -16 11 -10 -7 5
-18 3 -21 -16 -20 -25 1 -49 -14 -41 -26 2 -4 -3 -5 -11 -2 -9 4 -18 -1 -22
-10 -3 -9 -10 -13 -15 -10 -5 3 -9 0 -9 -5 0 -6 -7 -11 -16 -11 -8 0 -12 -4
-9 -10 3 -5 0 -10 -8 -10 -17 0 -49 -34 -40 -43 3 -4 2 -7 -4 -7 -5 0 -22 -10
-36 -22 -14 -13 -44 -39 -67 -58 -23 -21 -38 -41 -35 -49 4 -11 2 -11 -8 -3
-17 14 -28 6 -20 -16 5 -11 2 -14 -10 -9 -11 4 -14 2 -10 -9 3 -9 -1 -14 -12
-14 -10 0 -13 5 -9 12 4 7 3 8 -5 4 -9 -6 -9 -11 0 -22 10 -12 9 -13 -6 -8
-11 5 -16 3 -12 -2 3 -5 -2 -10 -11 -10 -26 -2 -74 -12 -80 -18 -3 -3 -11 -1
-18 5 -8 7 -14 7 -19 -1 -3 -5 -11 -10 -16 -10 -6 0 -7 5 -4 10 4 6 -8 10 -29
10 -22 0 -36 5 -36 13 0 7 -3 8 -8 2 -8 -11 -112 -14 -112 -3 0 4 -12 5 -26 2
-16 -3 -23 -1 -19 6 9 14 -8 13 -24 -2 -11 -10 -13 -10 -7 0 5 9 -3 12 -31 13
-61 0 -127 10 -138 20 -5 5 -29 9 -53 9 -24 0 -41 4 -38 8 2 4 -3 8 -12 9
-201 14 -224 16 -241 27 -11 7 -12 6 -6 -5 7 -12 6 -12 -7 -1 -13 10 -17 10
-21 0 -4 -10 -6 -10 -6 0 -1 8 -21 12 -64 12 -37 0 -69 -5 -76 -12 -11 -10
-13 -10 -7 0 9 16 -47 17 -76 1 -11 -6 -18 -7 -15 -2 4 5 0 10 -8 10 -8 0 -12
-4 -9 -9 3 -4 0 -8 -5 -8 -6 0 -11 5 -11 10 0 6 -5 10 -11 10 -5 0 -7 -5 -3
-11 4 -7 -1 -7 -15 1 -14 7 -27 8 -34 2 -12 -9 -36 -12 -97 -15 -19 -1 -38 -6
-42 -12 -5 -7 -8 -7 -8 1 0 6 -7 11 -15 11 -8 0 -15 -3 -15 -6 0 -4 -36 -6
-81 -6 -44 0 -83 -3 -85 -7 -3 -5 -19 -8 -35 -8 -22 0 -28 -4 -23 -12 6 -10 4
-10 -8 0 -12 10 -18 10 -23 1 -6 -8 -10 -7 -16 2 -5 9 -9 10 -9 3 0 -7 -14
-11 -34 -10 -19 1 -32 -2 -30 -6 5 -7 -53 -13 -85 -9 -7 2 -11 -1 -8 -6 3 -5
-7 -8 -21 -7 -15 1 -35 -3 -44 -7 -11 -6 -18 -5 -21 4 -4 9 -6 9 -6 0 -1 -8
-15 -13 -37 -13 -19 0 -33 -3 -31 -7 3 -5 -9 -8 -26 -8 -18 1 -35 -4 -39 -9
-10 -14 -117 -9 -136 6 -11 9 -13 9 -9 1 4 -6 3 -14 -3 -18 -5 -3 -10 -1 -10
5 0 7 -6 8 -19 0 -15 -7 -23 -6 -35 6 -9 8 -16 13 -16 10 0 -3 -13 8 -29 24
-15 17 -34 30 -40 30 -7 0 -9 5 -6 10 3 6 1 10 -5 10 -6 0 -8 5 -5 10 6 9 -16
15 -39 11 -5 -1 -3 5 4 14 11 13 10 15 -6 9 -10 -4 -16 -4 -12 1 7 7 -14 35
-26 35 -3 0 -16 9 -28 20 -13 10 -27 20 -33 22 -5 1 -21 12 -34 24 -13 13 -39
31 -58 41 -18 9 -33 21 -33 25 0 5 -4 8 -10 8 -5 0 -18 7 -27 15 -10 8 -34 25
-53 38 -19 13 -34 30 -32 37 2 11 -1 10 -14 -1 -16 -12 -17 -12 -11 3 4 11 2
15 -6 12 -7 -2 -22 5 -34 16 -13 11 -24 16 -28 10 -3 -6 -12 -10 -18 -10 -7 0
-6 4 3 10 12 8 11 10 -8 10 -12 0 -21 3 -21 8 1 4 1 14 0 22 -1 13 -2 13 -11
0 -8 -13 -11 -13 -22 -1 -10 10 -10 12 0 7 7 -4 12 -1 12 8 0 9 -3 15 -7 15
-21 -3 -33 3 -33 17 0 8 -4 12 -10 9 -5 -3 -10 -1 -10 6 0 9 -4 9 -15 -1 -12
-10 -14 -8 -10 9 2 11 1 20 -3 20 -26 -4 -43 5 -54 29 -11 21 -20 26 -40 24
-15 -1 -29 2 -33 8 -3 6 -12 7 -18 3 -8 -4 -7 -1 1 9 11 14 10 16 -7 11 -12
-3 -21 -1 -21 6 0 6 -5 11 -11 11 -5 0 -7 -4 -4 -10 4 -6 -1 -7 -11 -3 -11 4
-13 8 -6 11 20 6 13 21 -8 17 -11 -2 -20 0 -20 5 0 4 -9 6 -20 3 -15 -4 -20 0
-20 16 0 11 -5 21 -11 21 -5 0 -7 -4 -4 -10 3 -5 1 -10 -4 -10 -6 0 -11 5 -11
10 0 6 -8 10 -17 10 -24 1 -55 25 -45 36 4 4 -1 2 -10 -5 -18 -14 -58 -6 -58
11 0 6 6 5 15 -2 13 -10 18 -11 28 -1 9 10 8 11 -4 6 -10 -4 -20 -1 -24 5 -5
8 -10 8 -20 0 -9 -8 -15 -8 -20 0 -3 6 -11 7 -17 4 -7 -4 -8 -2 -4 5 6 9 12 9
24 -1 15 -12 16 -11 4 4 -8 9 -20 14 -28 11 -10 -4 -13 0 -8 13 5 16 4 16 -5
4 -10 -13 -12 -13 -20 0 -5 8 -7 19 -3 25 3 5 -2 4 -11 -4 -15 -12 -20 -11
-37 9 -11 13 -20 19 -20 14 0 -6 5 -15 12 -22 9 -9 9 -12 1 -12 -7 0 -14 8
-18 19 -5 16 -54 37 -78 32 -5 -1 -6 3 -2 8 3 6 13 8 23 5 13 -5 14 -4 3 4 -7
5 -27 9 -42 8 -18 -1 -29 3 -29 11 0 18 -37 36 -43 20 -3 -9 -7 -9 -17 0 -7 6
-20 9 -29 6 -12 -4 -10 -1 4 11 11 10 15 15 8 12 -6 -4 -14 -2 -18 3 -3 6 -13
7 -22 4 -12 -5 -14 -3 -8 8 4 8 5 11 0 7 -4 -4 -17 -3 -29 3 -19 9 -19 9 -4
-4 16 -13 15 -14 -11 -13 -16 1 -26 5 -23 10 3 5 -3 6 -13 2 -14 -5 -16 -4 -6
8 9 11 8 15 -4 20 -9 3 -14 2 -11 -2 2 -4 -4 -8 -14 -9 -11 -1 -22 3 -25 8 -4
5 -11 7 -16 4 -12 -8 -40 20 -31 31 4 5 0 3 -9 -4 -14 -10 -20 -10 -32 3 -9 8
-28 13 -45 11 -18 -2 -29 2 -29 10 0 9 5 10 17 4 11 -6 17 -5 17 4 0 7 -10 11
-21 10 -12 -1 -21 -3 -21 -4 0 -1 -8 -3 -18 -5 -12 -2 -17 1 -13 10 3 9 0 12
-10 8 -9 -3 -14 0 -12 8 3 15 -5 15 -34 4 -11 -4 -18 -3 -18 5 0 6 4 9 9 5 5
-3 12 -1 15 4 4 5 -2 8 -11 6 -10 -1 -26 2 -35 7 -14 7 -16 5 -12 -9 5 -17 5
-17 -6 -1 -6 10 -18 15 -28 12 -11 -4 -13 -3 -5 3 8 6 9 14 3 23 -7 10 -10 11
-10 3 0 -7 -4 -13 -10 -13 -5 0 -10 6 -10 14 0 8 -4 18 -10 21 -6 4 -7 -1 -3
-12 5 -15 3 -15 -18 3 -18 16 -30 20 -46 13 -18 -6 -21 -5 -17 9 5 14 3 13
-10 -2 -16 -20 -21 -13 -17 24 2 9 -5 5 -15 -9 -13 -18 -18 -20 -25 -10 -8 12
-10 12 -18 1 -7 -11 -9 -11 -14 1 -4 12 1 15 24 12 16 -2 29 -1 29 4 0 4 -17
7 -37 7 -21 -1 -41 3 -45 9 -5 6 -8 6 -8 -1 0 -12 -32 -11 -70 1 -15 5 -20 4
-16 -4 5 -7 1 -8 -9 -4 -13 5 -14 7 -3 14 10 7 9 9 -4 9 -9 0 -20 -4 -23 -10
-3 -5 -12 -10 -18 -10 -7 0 -4 5 6 11 9 5 17 14 17 18 0 10 -31 8 -49 -4 -10
-6 -12 -4 -7 4 5 8 3 12 -5 10 -8 -1 -26 -1 -41 0 -21 1 -26 5 -22 19 3 9 -2
6 -11 -8 -9 -14 -14 -17 -11 -7 3 9 1 17 -5 17 -6 0 -8 4 -5 8 2 4 -6 8 -19 8
-13 0 -21 -4 -19 -8 3 -4 0 -8 -5 -8 -6 0 -11 5 -11 10 0 6 -7 10 -16 10 -9 0
-12 -5 -8 -12 6 -10 5 -10 -7 -1 -18 14 -30 14 -49 0 -12 -9 -13 -8 -3 2 6 7
9 20 6 28 -4 11 -8 10 -19 -4 -12 -16 -13 -16 -8 7 5 21 4 22 -6 8 -8 -13 -16
-15 -34 -8 -13 5 -27 6 -32 2 -4 -4 -4 -1 0 6 5 9 3 12 -6 10 -7 -1 -23 7 -36
20 -12 12 -27 22 -34 22 -6 0 -3 -7 8 -16 18 -14 18 -15 -3 -4 -18 8 -23 8
-23 -2 0 -7 -8 -1 -17 14 -10 15 -24 30 -32 33 -10 4 -11 2 -3 -8 8 -10 6 -13
-8 -13 -10 0 -17 3 -15 6 2 3 0 12 -6 20 -7 12 -9 12 -9 -4z m408 -141 c-3 -3
-9 2 -12 12 -6 14 -5 15 5 6 7 -7 10 -15 7 -18z m7890 -66 c3 -8 1 -11 -3 -7
-5 4 -14 3 -21 -3 -11 -9 -12 -4 -5 29 2 9 25 -6 29 -19z m-7228 -103 c0 -2
-8 -10 -17 -17 -16 -13 -17 -12 -4 4 13 16 21 21 21 13z m5874 -121 c-4 -8
-11 -15 -16 -15 -6 0 -5 6 2 15 7 8 14 15 16 15 2 0 1 -7 -2 -15z m-4739 -376
c11 -16 1 -19 -13 -3 -7 8 -8 14 -3 14 5 0 13 -5 16 -11z m55 -59 c0 -5 -5
-10 -11 -10 -5 0 -7 5 -4 10 3 6 8 10 11 10 2 0 4 -4 4 -10z m-2225 -379 c3
-5 2 -12 -3 -15 -5 -3 -9 1 -9 9 0 17 3 19 12 6z m19 -90 c3 -5 -1 -11 -9 -14
-9 -4 -12 -1 -8 9 6 16 10 17 17 5z m8196 -15 c0 -2 -7 -7 -16 -10 -8 -3 -12
-2 -9 4 6 10 25 14 25 6z m-82 -464 c-7 -10 -14 -19 -15 -21 -3 -4 2 28 6 47
1 2 6 0 11 -3 8 -5 7 -12 -2 -23z m-88 -861 c0 -6 -4 -12 -8 -15 -5 -3 -9 1
-9 9 0 8 4 15 9 15 4 0 8 -4 8 -9z m-7806 -163 c-9 -14 -23 2 -17 18 4 12 8
13 14 3 4 -7 5 -17 3 -21z m7720 -136 c3 -5 -1 -9 -9 -9 -8 0 -12 4 -9 9 3 4
7 8 9 8 2 0 6 -4 9 -8z m-7519 -550 c-3 -3 -11 0 -18 7 -9 10 -8 11 6 5 10 -3
15 -9 12 -12z m41 -126 c0 -14 -5 -21 -9 -17 -4 4 -5 15 -1 24 9 24 12 21 10
-7z m7252 -11 c-6 -14 -13 -23 -15 -21 -5 5 15 46 22 46 3 0 -1 -11 -7 -25z
m-7198 -345 c0 -5 -5 -10 -11 -10 -5 0 -7 5 -4 10 3 6 8 10 11 10 2 0 4 -4 4
-10z m7375 -900 c-3 -5 -1 -10 6 -10 7 0 10 -3 6 -6 -9 -9 -28 6 -22 17 4 5 8
9 11 9 3 0 2 -4 -1 -10z m-7610 -90 c-3 -5 -11 -10 -16 -10 -6 0 -7 5 -4 10 3
6 11 10 16 10 6 0 7 -4 4 -10z m7648 -55 c-3 -9 -8 -14 -10 -11 -3 3 -2 9 2
15 9 16 15 13 8 -4z m42 -85 c3 -5 -1 -10 -10 -10 -9 0 -13 5 -10 10 3 6 8 10
10 10 2 0 7 -4 10 -10z m-7855 -264 c0 -2 -8 -10 -17 -17 -16 -13 -17 -12 -4
4 13 16 21 21 21 13z m8014 -144 c3 -5 -1 -9 -9 -9 -8 0 -12 4 -9 9 3 4 7 8 9
8 2 0 6 -4 9 -8z m231 -421 c3 -5 2 -12 -3 -15 -5 -3 -9 1 -9 9 0 17 3 19 12
6z m-8538 -56 c0 -8 -4 -12 -9 -9 -5 3 -6 10 -3 15 9 13 12 11 12 -6z m-97
-169 c0 -2 -7 -7 -16 -10 -8 -3 -12 -2 -9 4 6 10 25 14 25 6z m9285 -746 c3
-5 -1 -10 -10 -10 -9 0 -13 5 -10 10 3 6 8 10 10 10 2 0 7 -4 10 -10z m-9870
-70 c-3 -5 -12 -10 -18 -10 -7 0 -6 4 3 10 19 12 23 12 15 0z m9325 -84 c0 -3
-4 -8 -10 -11 -5 -3 -10 -1 -10 4 0 6 5 11 10 11 6 0 10 -2 10 -4z m-9365
-654 c-3 -3 -11 0 -18 7 -9 10 -8 11 6 5 10 -3 15 -9 12 -12z m216 -129 c13
-16 12 -17 -3 -4 -10 7 -18 15 -18 17 0 8 8 3 21 -13z m9479 7 c-8 -5 -19 -10
-25 -10 -5 0 -3 5 5 10 8 5 20 10 25 10 6 0 3 -5 -5 -10z m-160 -46 c0 -8 -19
-13 -24 -6 -3 5 1 9 9 9 8 0 15 -2 15 -3z m-9159 -297 c-10 -9 -11 -8 -5 6 3
10 9 15 12 12 3 -3 0 -11 -7 -18z m837 -422 c-3 -3 -9 2 -12 12 -6 14 -5 15 5
6 7 -7 10 -15 7 -18z m6872 -139 c0 -2 -7 -7 -16 -10 -8 -3 -12 -2 -9 4 6 10
25 14 25 6z m-5140 -146 c0 -5 -2 -10 -4 -10 -3 0 -8 5 -11 10 -3 6 -1 10 4
10 6 0 11 -4 11 -10z m620 -244 c0 -3 -4 -8 -10 -11 -5 -3 -10 -1 -10 4 0 6 5
11 10 11 6 0 10 -2 10 -4z m11 -19 c-10 -9 -11 -8 -5 6 3 10 9 15 12 12 3 -3
0 -11 -7 -18z m2629 -127 c0 -5 -8 -10 -17 -10 -15 0 -16 2 -3 10 19 12 20 12
20 0z m-1500 -246 c0 -8 -19 -13 -24 -6 -3 5 1 9 9 9 8 0 15 -2 15 -3z m780 2
c0 -2 -7 -7 -16 -10 -8 -3 -12 -2 -9 4 6 10 25 14 25 6z m-512 -25 c-7 -11
-21 -22 -32 -25 -16 -4 -13 0 9 19 37 30 38 30 23 6z m-333 -1 c-3 -5 -2 -10
4 -10 5 0 11 6 14 13 3 6 4 2 4 -10 -1 -13 -4 -23 -8 -23 -11 0 -29 27 -22 33
10 10 15 8 8 -3z m265 -2 c0 -11 -12 -10 -30 2 -12 7 -10 9 8 7 12 0 22 -5 22
-9z m140 -23 c0 -5 -5 -3 -10 5 -5 8 -10 20 -10 25 0 6 5 3 10 -5 5 -8 10 -19
10 -25z m-325 6 c-9 -8 -36 -10 -30 -2 2 4 11 8 20 8 8 0 13 -3 10 -6z m48 2
c-7 -2 -19 -2 -25 0 -7 3 -2 5 12 5 14 0 19 -2 13 -5z m80 0 c-7 -2 -19 -2
-25 0 -7 3 -2 5 12 5 14 0 19 -2 13 -5z m172 -11 c-3 -3 -11 0 -18 7 -9 10 -8
11 6 5 10 -3 15 -9 12 -12z"/>
<path d="M1091 9874 c0 -11 3 -14 6 -6 3 7 2 16 -1 19 -3 4 -6 -2 -5 -13z"/>
<path d="M1175 9849 c-4 -6 -5 -12 -2 -15 2 -3 7 2 10 11 7 17 1 20 -8 4z"/>
<path d="M8953 9833 c0 -9 4 -10 12 -3 7 5 15 7 18 3 4 -3 7 -1 7 5 0 6 -8 10
-18 9 -10 0 -19 -7 -19 -14z"/>
<path d="M1315 9809 c-4 -6 -5 -12 -2 -15 2 -3 7 2 10 11 7 17 1 20 -8 4z"/>
<path d="M1620 9736 c0 -2 7 -7 16 -10 8 -3 12 -2 9 4 -6 10 -25 14 -25 6z"/>
<path d="M9291 9564 c6 -7 16 -11 21 -8 11 7 3 17 -18 20 -12 2 -13 -1 -3 -12z"/>
<path d="M988 9553 c7 -3 16 -2 19 1 4 3 -2 6 -13 5 -11 0 -14 -3 -6 -6z"/>
<path d="M2273 9525 c0 -8 4 -15 9 -15 4 0 8 4 8 9 0 6 -4 12 -8 15 -5 3 -9
-1 -9 -9z"/>
<path d="M980 9516 c0 -2 7 -7 16 -10 8 -3 12 -2 9 4 -6 10 -25 14 -25 6z"/>
<path d="M9306 9503 c-6 -14 -5 -15 5 -6 7 7 10 15 7 18 -3 3 -9 -2 -12 -12z"/>
<path d="M2315 9500 c-3 -5 -1 -10 4 -10 6 0 11 5 11 10 0 6 -2 10 -4 10 -3 0
-8 -4 -11 -10z"/>
<path d="M1001 9473 c12 -15 12 -16 -6 -9 -15 5 -17 4 -8 -5 6 -6 16 -8 22 -5
12 8 3 36 -11 36 -6 0 -4 -8 3 -17z"/>
<path d="M990 9366 c0 -2 8 -10 18 -17 15 -13 16 -12 3 4 -13 16 -21 21 -21
13z"/>
<path d="M9309 9283 c-13 -16 -12 -17 4 -4 9 7 17 15 17 17 0 8 -8 3 -21 -13z"/>
<path d="M1007 9245 c-4 -8 -1 -17 6 -21 7 -4 9 -4 5 1 -4 4 -3 14 3 22 7 8 8
13 1 13 -5 0 -12 -7 -15 -15z"/>
<path d="M9300 9256 c0 -2 8 -10 18 -17 15 -13 16 -12 3 4 -13 16 -21 21 -21
13z"/>
<path d="M990 9201 c0 -6 4 -13 10 -16 6 -3 7 1 4 9 -7 18 -14 21 -14 7z"/>
<path d="M999 9153 c-13 -16 -12 -17 4 -4 16 13 21 21 13 21 -2 0 -10 -8 -17
-17z"/>
<path d="M7066 9047 c3 -10 9 -15 12 -12 3 3 0 11 -7 18 -10 9 -11 8 -5 -6z"/>
<path d="M6956 8973 c-6 -14 -5 -15 5 -6 7 7 10 15 7 18 -3 3 -9 -2 -12 -12z"/>
<path d="M1020 8579 c0 -5 5 -7 10 -4 6 3 10 8 10 11 0 2 -4 4 -10 4 -5 0 -10
-5 -10 -11z"/>
<path d="M1030 8456 c0 -2 8 -10 18 -17 15 -13 16 -12 3 4 -13 16 -21 21 -21
13z"/>
<path d="M9100 7420 c0 -5 5 -10 11 -10 5 0 7 5 4 10 -3 6 -8 10 -11 10 -2 0
-4 -4 -4 -10z"/>
<path d="M1190 7379 c0 -5 5 -7 10 -4 6 3 10 8 10 11 0 2 -4 4 -10 4 -5 0 -10
-5 -10 -11z"/>
<path d="M1278 6933 c7 -3 16 -2 19 1 4 3 -2 6 -13 5 -11 0 -14 -3 -6 -6z"/>
<path d="M9016 6873 c-6 -14 -5 -15 5 -6 7 7 10 15 7 18 -3 3 -9 -2 -12 -12z"/>
<path d="M8971 6796 c-8 -10 -9 -16 -1 -21 5 -3 10 1 10 10 0 10 5 13 12 9 7
-4 8 -3 4 4 -9 15 -11 15 -25 -2z"/>
<path d="M1321 6733 c7 -12 15 -20 18 -17 3 2 -3 12 -13 22 -17 16 -18 16 -5
-5z"/>
<path d="M1539 5825 c-1 -3 -2 -8 -3 -12 -1 -5 -5 -15 -10 -23 -6 -9 -1 -8 12
4 12 10 19 23 16 27 -6 10 -13 12 -15 4z"/>
<path d="M1176 4582 c-3 -5 1 -9 9 -9 8 0 12 4 9 9 -3 4 -7 8 -9 8 -2 0 -6 -4
-9 -8z"/>
<path d="M1011 4206 c-9 -11 -9 -16 1 -22 7 -4 10 -4 6 1 -4 4 -3 14 3 22 6 7
9 13 6 13 -2 0 -10 -6 -16 -14z"/>
<path d="M9483 3855 c0 -8 4 -12 9 -9 5 3 6 10 3 15 -9 13 -12 11 -12 -6z"/>
<path d="M9520 3746 c0 -2 7 -9 15 -16 9 -7 15 -8 15 -2 0 5 -7 12 -15 16 -8
3 -15 4 -15 2z"/>
<path d="M10007 3069 c7 -7 15 -10 18 -7 3 3 -2 9 -12 12 -14 6 -15 5 -6 -5z"/>
<path d="M10047 3009 c7 -7 15 -10 18 -7 3 3 -2 9 -12 12 -14 6 -15 5 -6 -5z"/>
<path d="M9870 1739 c0 -5 5 -7 10 -4 6 3 10 8 10 11 0 2 -4 4 -10 4 -5 0 -10
-5 -10 -11z"/>
<path d="M9555 1560 c-3 -5 -1 -10 4 -10 6 0 11 5 11 10 0 6 -2 10 -4 10 -3 0
-8 -4 -11 -10z"/>
<path d="M784 1529 c-4 -7 -3 -9 4 -5 6 3 15 -2 21 -11 6 -10 11 -13 11 -7 0
20 -27 37 -36 23z"/>
<path d="M9144 1349 c-9 -10 -12 -19 -7 -19 6 0 13 7 17 15 3 8 12 12 21 9 8
-3 15 -4 15 -1 0 15 -31 13 -46 -4z"/>
<path d="M9027 1289 c7 -7 15 -10 18 -7 3 3 -2 9 -12 12 -14 6 -15 5 -6 -5z"/>
<path d="M2387 1053 c-12 -12 -7 -19 12 -19 15 0 17 3 9 13 -12 15 -13 15 -21
6z"/>
<path d="M3496 845 c4 -8 11 -15 16 -15 6 0 5 6 -2 15 -7 8 -14 15 -16 15 -2
0 -1 -7 2 -15z"/>
<path d="M3530 826 c0 -4 7 -14 15 -22 8 -9 15 -11 15 -6 0 5 -7 15 -15 22 -8
7 -15 9 -15 6z"/>
<path d="M3949 602 c-13 -15 -12 -16 3 -4 13 10 17 10 21 0 4 -9 6 -9 6 -1 2
20 -16 24 -30 5z"/>
<path d="M5975 469 c-4 -6 -5 -12 -2 -15 2 -3 7 2 10 11 7 17 1 20 -8 4z"/>
</g>
</svg>
